{
    "asset" : {
        "generator" : "Khronos glTF Blender I/O v1.1.46",
        "version" : "2.0"
    },
    "scene" : 0,
    "scenes" : [
        {
            "name" : "Scene",
            "nodes" : [
                7
            ]
        }
    ],
    "nodes" : [
        {
            "mesh" : 0,
            "name" : "Cube.003",
            "rotation" : [
                -0.5,
                -0.5,
                0.5000000596046448,
                0.4999999701976776
            ],
            "translation" : [
                0,
                0.32376033067703247,
                0
            ]
        },
        {
            "children" : [
                0
            ],
            "mesh" : 1,
            "name" : "box",
            "rotation" : [
                0,
                0,
                -0.7071068286895752,
                0.7071068286895752
            ],
            "scale" : [
                1.1964253187179565,
                1.1964253187179565,
                1.1964253187179565
            ],
            "translation" : [
                -0.3873549997806549,
                0,
                -0.6233811378479004
            ]
        },
        {
            "mesh" : 2,
            "name" : "Curve.001",
            "rotation" : [
                -0.7071068286895752,
                0,
                0,
                0.7071068286895752
            ],
            "scale" : [
                1.1964253187179565,
                1.1964253187179565,
                1.1964253187179565
            ],
            "translation" : [
                0,
                0,
                -0.6191801428794861
            ]
        },
        {
            "mesh" : 3,
            "name" : "guide",
            "rotation" : [
                0,
                0,
                -0.7071068286895752,
                0.7071068286895752
            ],
            "scale" : [
                1.1964253187179565,
                1.1964253187179565,
                1.1964253187179565
            ],
            "translation" : [
                -0.38899385929107666,
                0.704683780670166,
                -1.1302461624145508
            ]
        },
        {
            "mesh" : 4,
            "name" : "mattress",
            "scale" : [
                1.1964253187179565,
                1.1964253187179565,
                1.1964253187179565
            ],
            "translation" : [
                0,
                0,
                -0.5738642811775208
            ]
        },
        {
            "mesh" : 5,
            "name" : "Plane",
            "rotation" : [
                -0.7071068286895752,
                0,
                0,
                0.7071068286895752
            ],
            "scale" : [
                1.1964253187179565,
                1.1964253187179565,
                1.1964253187179565
            ],
            "translation" : [
                0,
                0,
                -0.617730975151062
            ]
        },
        {
            "mesh" : 6,
            "name" : "sumi",
            "rotation" : [
                -0.7071068286895752,
                0,
                0,
                0.7071068286895752
            ],
            "scale" : [
                1.1964253187179565,
                1.1964253187179565,
                1.1964253187179565
            ],
            "translation" : [
                0,
                0,
                -0.5185020565986633
            ]
        },
        {
            "children" : [
                1,
                2,
                3,
                4,
                5,
                6
            ],
            "mesh" : 7,
            "name" : "base",
            "rotation" : [
                0.7071067690849304,
                0,
                0,
                0.7071068286895752
            ],
            "scale" : [
                0.8358230590820312,
                0.8358230590820312,
                0.8358230590820312
            ],
            "translation" : [
                0,
                0.0001785755157470703,
                0
            ]
        }
    ],
    "materials" : [
        {
            "doubleSided" : true,
            "name" : "whitewood",
            "pbrMetallicRoughness" : {}
        },
        {
            "doubleSided" : true,
            "name" : "metal",
            "pbrMetallicRoughness" : {}
        },
        {
            "doubleSided" : true,
            "name" : "whitemet",
            "pbrMetallicRoughness" : {}
        },
        {
            "doubleSided" : true,
            "name" : "plastic_base",
            "pbrMetallicRoughness" : {}
        },
        {
            "doubleSided" : true,
            "name" : "sheet",
            "pbrMetallicRoughness" : {}
        },
        {
            "doubleSided" : true,
            "name" : "sheetup",
            "pbrMetallicRoughness" : {}
        },
        {
            "doubleSided" : true,
            "name" : "sheet_orange",
            "pbrMetallicRoughness" : {}
        },
        {
            "doubleSided" : true,
            "name" : "metal_base_su",
            "pbrMetallicRoughness" : {}
        },
        {
            "doubleSided" : true,
            "name" : "wood_su",
            "pbrMetallicRoughness" : {}
        },
        {
            "doubleSided" : true,
            "name" : "brownwood",
            "pbrMetallicRoughness" : {}
        }
    ],
    "meshes" : [
        {
            "name" : "Cube.004",
            "primitives" : [
                {
                    "attributes" : {
                        "POSITION" : 0,
                        "NORMAL" : 1
                    },
                    "indices" : 2,
                    "material" : 0
                }
            ]
        },
        {
            "name" : "Cube.003",
            "primitives" : [
                {
                    "attributes" : {
                        "POSITION" : 3,
                        "NORMAL" : 4
                    },
                    "indices" : 5,
                    "material" : 0
                }
            ]
        },
        {
            "name" : "Mesh.001",
            "primitives" : [
                {
                    "attributes" : {
                        "POSITION" : 6,
                        "NORMAL" : 7
                    },
                    "indices" : 8,
                    "material" : 1
                }
            ]
        },
        {
            "name" : "Mesh",
            "primitives" : [
                {
                    "attributes" : {
                        "POSITION" : 9,
                        "NORMAL" : 10
                    },
                    "indices" : 11,
                    "material" : 2
                },
                {
                    "attributes" : {
                        "POSITION" : 12,
                        "NORMAL" : 13
                    },
                    "indices" : 14,
                    "material" : 1
                },
                {
                    "attributes" : {
                        "POSITION" : 15,
                        "NORMAL" : 16
                    },
                    "indices" : 17,
                    "material" : 3
                }
            ]
        },
        {
            "name" : "Cube.002",
            "primitives" : [
                {
                    "attributes" : {
                        "POSITION" : 18,
                        "NORMAL" : 19
                    },
                    "indices" : 20,
                    "material" : 4
                }
            ]
        },
        {
            "name" : "Plane",
            "primitives" : [
                {
                    "attributes" : {
                        "POSITION" : 21,
                        "NORMAL" : 22
                    },
                    "indices" : 23,
                    "material" : 5
                },
                {
                    "attributes" : {
                        "POSITION" : 24,
                        "NORMAL" : 25
                    },
                    "indices" : 26,
                    "material" : 6
                }
            ]
        },
        {
            "name" : "Cube.005",
            "primitives" : [
                {
                    "attributes" : {
                        "POSITION" : 27,
                        "NORMAL" : 28
                    },
                    "indices" : 29,
                    "material" : 7
                },
                {
                    "attributes" : {
                        "POSITION" : 30,
                        "NORMAL" : 31
                    },
                    "indices" : 32,
                    "material" : 8
                }
            ]
        },
        {
            "name" : "Cube.001",
            "primitives" : [
                {
                    "attributes" : {
                        "POSITION" : 33,
                        "NORMAL" : 34,
                        "TEXCOORD_0" : 35
                    },
                    "indices" : 36,
                    "material" : 0
                },
                {
                    "attributes" : {
                        "POSITION" : 37,
                        "NORMAL" : 38,
                        "TEXCOORD_0" : 39
                    },
                    "indices" : 40,
                    "material" : 9
                }
            ]
        }
    ],
    "accessors" : [
        {
            "bufferView" : 0,
            "componentType" : 5126,
            "count" : 132,
            "max" : [
                0.3134154677391052,
                -0.2881813645362854,
                0.5491597056388855
            ],
            "min" : [
                -0.3134153485298157,
                -0.45279741287231445,
                -0.5491597056388855
            ],
            "type" : "VEC3"
        },
        {
            "bufferView" : 1,
            "componentType" : 5126,
            "count" : 132,
            "type" : "VEC3"
        },
        {
            "bufferView" : 2,
            "componentType" : 5123,
            "count" : 276,
            "type" : "SCALAR"
        },
        {
            "bufferView" : 3,
            "componentType" : 5126,
            "count" : 280,
            "max" : [
                0.5592178702354431,
                0.011914968490600586,
                0.4624731242656708
            ],
            "min" : [
                -0.5592178106307983,
                -0.011914925649762154,
                0.2773813009262085
            ],
            "type" : "VEC3"
        },
        {
            "bufferView" : 4,
            "componentType" : 5126,
            "count" : 280,
            "type" : "VEC3"
        },
        {
            "bufferView" : 5,
            "componentType" : 5123,
            "count" : 1668,
            "type" : "SCALAR"
        },
        {
            "bufferView" : 6,
            "componentType" : 5126,
            "count" : 360,
            "max" : [
                0.30637723207473755,
                -0.0955231785774231,
                0.6183945536613464
            ],
            "min" : [
                -0.30637723207473755,
                -0.12473945319652557,
                -0.6183945536613464
            ],
            "type" : "VEC3"
        },
        {
            "bufferView" : 7,
            "componentType" : 5126,
            "count" : 360,
            "type" : "VEC3"
        },
        {
            "bufferView" : 8,
            "componentType" : 5123,
            "count" : 2064,
            "type" : "SCALAR"
        },
        {
            "bufferView" : 9,
            "componentType" : 5126,
            "count" : 456,
            "max" : [
                1.179028034210205,
                0.002076566219329834,
                0.8777876496315002
            ],
            "min" : [
                -0.0010460049379616976,
                -0.0020765173248946667,
                -0.007293471600860357
            ],
            "type" : "VEC3"
        },
        {
            "bufferView" : 10,
            "componentType" : 5126,
            "count" : 456,
            "type" : "VEC3"
        },
        {
            "bufferView" : 11,
            "componentType" : 5123,
            "count" : 2592,
            "type" : "SCALAR"
        },
        {
            "bufferView" : 12,
            "componentType" : 5126,
            "count" : 104,
            "max" : [
                1.2069029808044434,
                0.00332796573638916,
                0.8873646259307861
            ],
            "min" : [
                -0.02892080321907997,
                -0.003327950369566679,
                -0.008681774139404297
            ],
            "type" : "VEC3"
        },
        {
            "bufferView" : 13,
            "componentType" : 5126,
            "count" : 104,
            "type" : "VEC3"
        },
        {
            "bufferView" : 14,
            "componentType" : 5123,
            "count" : 576,
            "type" : "SCALAR"
        },
        {
            "bufferView" : 15,
            "componentType" : 5126,
            "count" : 144,
            "max" : [
                1.1779353618621826,
                0.00895315408706665,
                0.890953004360199
            ],
            "min" : [
                4.6805653255432844e-05,
                -0.008953066542744637,
                0.8757436871528625
            ],
            "type" : "VEC3"
        },
        {
            "bufferView" : 16,
            "componentType" : 5126,
            "count" : 144,
            "type" : "VEC3"
        },
        {
            "bufferView" : 17,
            "componentType" : 5123,
            "count" : 840,
            "type" : "SCALAR"
        },
        {
            "bufferView" : 18,
            "componentType" : 5126,
            "count" : 242,
            "max" : [
                0.3037664294242859,
                0.5808834433555603,
                0.034810688346624374
            ],
            "min" : [
                -0.30376648902893066,
                -0.5758006572723389,
                -0.03481070697307587
            ],
            "type" : "VEC3"
        },
        {
            "bufferView" : 19,
            "componentType" : 5126,
            "count" : 242,
            "type" : "VEC3"
        },
        {
            "bufferView" : 20,
            "componentType" : 5123,
            "count" : 1440,
            "type" : "SCALAR"
        },
        {
            "bufferView" : 21,
            "componentType" : 5126,
            "count" : 2555,
            "max" : [
                0.32710501551628113,
                0.01524746511131525,
                0.5853798389434814
            ],
            "min" : [
                -0.3262258768081665,
                -0.2361353486776352,
                -0.2975967526435852
            ],
            "type" : "VEC3"
        },
        {
            "bufferView" : 22,
            "componentType" : 5126,
            "count" : 2555,
            "type" : "VEC3"
        },
        {
            "bufferView" : 23,
            "componentType" : 5123,
            "count" : 14736,
            "type" : "SCALAR"
        },
        {
            "bufferView" : 24,
            "componentType" : 5126,
            "count" : 885,
            "max" : [
                0.3229052722454071,
                0.012980237603187561,
                -0.29572340846061707
            ],
            "min" : [
                -0.32210633158683777,
                -0.23455412685871124,
                -0.5793383121490479
            ],
            "type" : "VEC3"
        },
        {
            "bufferView" : 25,
            "componentType" : 5126,
            "count" : 885,
            "type" : "VEC3"
        },
        {
            "bufferView" : 26,
            "componentType" : 5123,
            "count" : 4872,
            "type" : "SCALAR"
        },
        {
            "bufferView" : 27,
            "componentType" : 5126,
            "count" : 224,
            "max" : [
                0.30649274587631226,
                0.011370605789124966,
                0.5782386064529419
            ],
            "min" : [
                -0.30649274587631226,
                -0.011370605789124966,
                -0.5782386064529419
            ],
            "type" : "VEC3"
        },
        {
            "bufferView" : 28,
            "componentType" : 5126,
            "count" : 224,
            "type" : "VEC3"
        },
        {
            "bufferView" : 29,
            "componentType" : 5123,
            "count" : 1344,
            "type" : "SCALAR"
        },
        {
            "bufferView" : 30,
            "componentType" : 5126,
            "count" : 564,
            "max" : [
                0.22393226623535156,
                0.0023682990577071905,
                0.5603747963905334
            ],
            "min" : [
                -0.22393226623535156,
                -0.0023682990577071905,
                -0.5586096048355103
            ],
            "type" : "VEC3"
        },
        {
            "bufferView" : 31,
            "componentType" : 5126,
            "count" : 564,
            "type" : "VEC3"
        },
        {
            "bufferView" : 32,
            "componentType" : 5123,
            "count" : 900,
            "type" : "SCALAR"
        },
        {
            "bufferView" : 33,
            "componentType" : 5126,
            "count" : 16880,
            "max" : [
                0.42070284485816956,
                0.7369846105575562,
                3.5762786865234375e-07
            ],
            "min" : [
                -0.42070284485816956,
                -0.7369844913482666,
                -1.2976489067077637
            ],
            "type" : "VEC3"
        },
        {
            "bufferView" : 34,
            "componentType" : 5126,
            "count" : 16880,
            "type" : "VEC3"
        },
        {
            "bufferView" : 35,
            "componentType" : 5126,
            "count" : 16880,
            "type" : "VEC2"
        },
        {
            "bufferView" : 36,
            "componentType" : 5123,
            "count" : 25320,
            "type" : "SCALAR"
        },
        {
            "bufferView" : 37,
            "componentType" : 5126,
            "count" : 698,
            "max" : [
                0.43549051880836487,
                0.7436885237693787,
                -1.2137449979782104
            ],
            "min" : [
                -0.43549051880836487,
                -0.7436883449554443,
                -1.3271747827529907
            ],
            "type" : "VEC3"
        },
        {
            "bufferView" : 38,
            "componentType" : 5126,
            "count" : 698,
            "type" : "VEC3"
        },
        {
            "bufferView" : 39,
            "componentType" : 5126,
            "count" : 698,
            "type" : "VEC2"
        },
        {
            "bufferView" : 40,
            "componentType" : 5123,
            "count" : 3840,
            "type" : "SCALAR"
        }
    ],
    "bufferViews" : [
        {
            "buffer" : 0,
            "byteLength" : 1584,
            "byteOffset" : 0
        },
        {
            "buffer" : 0,
            "byteLength" : 1584,
            "byteOffset" : 1584
        },
        {
            "buffer" : 0,
            "byteLength" : 552,
            "byteOffset" : 3168
        },
        {
            "buffer" : 0,
            "byteLength" : 3360,
            "byteOffset" : 3720
        },
        {
            "buffer" : 0,
            "byteLength" : 3360,
            "byteOffset" : 7080
        },
        {
            "buffer" : 0,
            "byteLength" : 3336,
            "byteOffset" : 10440
        },
        {
            "buffer" : 0,
            "byteLength" : 4320,
            "byteOffset" : 13776
        },
        {
            "buffer" : 0,
            "byteLength" : 4320,
            "byteOffset" : 18096
        },
        {
            "buffer" : 0,
            "byteLength" : 4128,
            "byteOffset" : 22416
        },
        {
            "buffer" : 0,
            "byteLength" : 5472,
            "byteOffset" : 26544
        },
        {
            "buffer" : 0,
            "byteLength" : 5472,
            "byteOffset" : 32016
        },
        {
            "buffer" : 0,
            "byteLength" : 5184,
            "byteOffset" : 37488
        },
        {
            "buffer" : 0,
            "byteLength" : 1248,
            "byteOffset" : 42672
        },
        {
            "buffer" : 0,
            "byteLength" : 1248,
            "byteOffset" : 43920
        },
        {
            "buffer" : 0,
            "byteLength" : 1152,
            "byteOffset" : 45168
        },
        {
            "buffer" : 0,
            "byteLength" : 1728,
            "byteOffset" : 46320
        },
        {
            "buffer" : 0,
            "byteLength" : 1728,
            "byteOffset" : 48048
        },
        {
            "buffer" : 0,
            "byteLength" : 1680,
            "byteOffset" : 49776
        },
        {
            "buffer" : 0,
            "byteLength" : 2904,
            "byteOffset" : 51456
        },
        {
            "buffer" : 0,
            "byteLength" : 2904,
            "byteOffset" : 54360
        },
        {
            "buffer" : 0,
            "byteLength" : 2880,
            "byteOffset" : 57264
        },
        {
            "buffer" : 0,
            "byteLength" : 30660,
            "byteOffset" : 60144
        },
        {
            "buffer" : 0,
            "byteLength" : 30660,
            "byteOffset" : 90804
        },
        {
            "buffer" : 0,
            "byteLength" : 29472,
            "byteOffset" : 121464
        },
        {
            "buffer" : 0,
            "byteLength" : 10620,
            "byteOffset" : 150936
        },
        {
            "buffer" : 0,
            "byteLength" : 10620,
            "byteOffset" : 161556
        },
        {
            "buffer" : 0,
            "byteLength" : 9744,
            "byteOffset" : 172176
        },
        {
            "buffer" : 0,
            "byteLength" : 2688,
            "byteOffset" : 181920
        },
        {
            "buffer" : 0,
            "byteLength" : 2688,
            "byteOffset" : 184608
        },
        {
            "buffer" : 0,
            "byteLength" : 2688,
            "byteOffset" : 187296
        },
        {
            "buffer" : 0,
            "byteLength" : 6768,
            "byteOffset" : 189984
        },
        {
            "buffer" : 0,
            "byteLength" : 6768,
            "byteOffset" : 196752
        },
        {
            "buffer" : 0,
            "byteLength" : 1800,
            "byteOffset" : 203520
        },
        {
            "buffer" : 0,
            "byteLength" : 202560,
            "byteOffset" : 205320
        },
        {
            "buffer" : 0,
            "byteLength" : 202560,
            "byteOffset" : 407880
        },
        {
            "buffer" : 0,
            "byteLength" : 135040,
            "byteOffset" : 610440
        },
        {
            "buffer" : 0,
            "byteLength" : 50640,
            "byteOffset" : 745480
        },
        {
            "buffer" : 0,
            "byteLength" : 8376,
            "byteOffset" : 796120
        },
        {
            "buffer" : 0,
            "byteLength" : 8376,
            "byteOffset" : 804496
        },
        {
            "buffer" : 0,
            "byteLength" : 5584,
            "byteOffset" : 812872
        },
        {
            "buffer" : 0,
            "byteLength" : 7680,
            "byteOffset" : 818456
        }
    ],
    "buffers" : [
        {
            "byteLength" : 826136,
            "uri" : "data:application/octet-stream;base64,"
        }
    ]
}
