{
    "asset" : {
        "generator" : "Khronos glTF Blender I/O v1.1.46",
        "version" : "2.0"
    },
    "scene" : 0,
    "scenes" : [
        {
            "name" : "Scene",
            "nodes" : [
                0,
                1,
                2,
                3,
                4,
                5
            ]
        }
    ],
    "nodes" : [
        {
            "name" : "Light",
            "rotation" : [
                0.16907575726509094,
                0.7558803558349609,
                -0.27217137813568115,
                0.570947527885437
            ],
            "translation" : [
                4.076245307922363,
                5.903861999511719,
                -1.0054539442062378
            ]
        },
        {
            "name" : "Camera",
            "rotation" : [
                0.483536034822464,
                0.33687159419059753,
                -0.20870360732078552,
                0.7804827094078064
            ],
            "translation" : [
                7.358891487121582,
                4.958309173583984,
                6.925790786743164
            ]
        },
        {
            "mesh" : 0,
            "name" : "Group_002",
            "scale" : [
                0.0010000000474974513,
                0.0010000000474974513,
                0.0010000000474974513
            ],
            "translation" : [
                0.2978740334510803,
                0.7500000596046448,
                -0.41287413239479065
            ]
        },
        {
            "mesh" : 1,
            "name" : "Group_001",
            "scale" : [
                0.0010000000474974513,
                0.0010000000474974513,
                0.0010000000474974513
            ],
            "translation" : [
                0.2978740334510803,
                0.7500000596046448,
                0.4128741919994354
            ]
        },
        {
            "mesh" : 2,
            "name" : "Layer0_001",
            "scale" : [
                0.0010000000474974513,
                0.0010000000474974513,
                0.0010000000474974513
            ],
            "translation" : [
                0,
                0.5850000381469727,
                0
            ]
        },
        {
            "name" : "Area",
            "translation" : [
                2.1283106803894043,
                1.4645845890045166,
                -0.44637632369995117
            ]
        }
    ],
    "materials" : [
        {
            "doubleSided" : true,
            "emissiveFactor" : [
                0,
                0,
                0
            ],
            "name" : "Material.001",
            "pbrMetallicRoughness" : {
                "baseColorFactor" : [
                    0.6151776313781738,
                    0.41661807894706726,
                    0.41661807894706726,
                    1
                ],
                "metallicFactor" : 0,
                "roughnessFactor" : 0.5
            }
        },
        {
            "doubleSided" : true,
            "name" : "dbl_Layer0_001_ncl1_2",
            "pbrMetallicRoughness" : {}
        },
        {
            "doubleSided" : true,
            "name" : "dbl_Layer0_002",
            "pbrMetallicRoughness" : {}
        }
    ],
    "meshes" : [
        {
            "name" : "Group_002Mesh",
            "primitives" : [
                {
                    "attributes" : {
                        "POSITION" : 0,
                        "NORMAL" : 1,
                        "TEXCOORD_0" : 2,
                        "TEXCOORD_1" : 3
                    },
                    "indices" : 4,
                    "material" : 0
                }
            ]
        },
        {
            "name" : "Group_001Mesh",
            "primitives" : [
                {
                    "attributes" : {
                        "POSITION" : 5,
                        "NORMAL" : 6,
                        "TEXCOORD_0" : 7,
                        "TEXCOORD_1" : 8
                    },
                    "indices" : 9,
                    "material" : 0
                }
            ]
        },
        {
            "name" : "Layer0_001Mesh",
            "primitives" : [
                {
                    "attributes" : {
                        "POSITION" : 10,
                        "NORMAL" : 11,
                        "TEXCOORD_0" : 12,
                        "TEXCOORD_1" : 13
                    },
                    "indices" : 14,
                    "material" : 1
                },
                {
                    "attributes" : {
                        "POSITION" : 15,
                        "NORMAL" : 16,
                        "TEXCOORD_0" : 17,
                        "TEXCOORD_1" : 18
                    },
                    "indices" : 19,
                    "material" : 2
                }
            ]
        }
    ],
    "accessors" : [
        {
            "bufferView" : 0,
            "componentType" : 5126,
            "count" : 584,
            "max" : [
                672.1257934570312,
                360,
                12.1259765625
            ],
            "min" : [
                -672.1259765625,
                -360,
                -12.125858306884766
            ],
            "type" : "VEC3"
        },
        {
            "bufferView" : 1,
            "componentType" : 5126,
            "count" : 584,
            "type" : "VEC3"
        },
        {
            "bufferView" : 2,
            "componentType" : 5126,
            "count" : 584,
            "type" : "VEC2"
        },
        {
            "bufferView" : 3,
            "componentType" : 5126,
            "count" : 584,
            "type" : "VEC2"
        },
        {
            "bufferView" : 4,
            "componentType" : 5123,
            "count" : 1194,
            "type" : "SCALAR"
        },
        {
            "bufferView" : 5,
            "componentType" : 5126,
            "count" : 570,
            "max" : [
                672.1257934570312,
                360,
                12.12591552734375
            ],
            "min" : [
                -672.1259765625,
                -360,
                -12.125919342041016
            ],
            "type" : "VEC3"
        },
        {
            "bufferView" : 6,
            "componentType" : 5126,
            "count" : 570,
            "type" : "VEC3"
        },
        {
            "bufferView" : 7,
            "componentType" : 5126,
            "count" : 570,
            "type" : "VEC2"
        },
        {
            "bufferView" : 8,
            "componentType" : 5126,
            "count" : 570,
            "type" : "VEC2"
        },
        {
            "bufferView" : 9,
            "componentType" : 5123,
            "count" : 1167,
            "type" : "SCALAR"
        },
        {
            "bufferView" : 10,
            "componentType" : 5126,
            "count" : 360,
            "max" : [
                970,
                585,
                425
            ],
            "min" : [
                -969.9998779296875,
                -585,
                -425
            ],
            "type" : "VEC3"
        },
        {
            "bufferView" : 11,
            "componentType" : 5126,
            "count" : 360,
            "type" : "VEC3"
        },
        {
            "bufferView" : 12,
            "componentType" : 5126,
            "count" : 360,
            "type" : "VEC2"
        },
        {
            "bufferView" : 13,
            "componentType" : 5126,
            "count" : 360,
            "type" : "VEC2"
        },
        {
            "bufferView" : 14,
            "componentType" : 5123,
            "count" : 681,
            "type" : "SCALAR"
        },
        {
            "bufferView" : 15,
            "componentType" : 5126,
            "count" : 12,
            "max" : [
                945.748291015625,
                5,
                400.7481689453125
            ],
            "min" : [
                -374.251708984375,
                -95.00003051757812,
                -400.7481689453125
            ],
            "type" : "VEC3"
        },
        {
            "bufferView" : 16,
            "componentType" : 5126,
            "count" : 12,
            "type" : "VEC3"
        },
        {
            "bufferView" : 17,
            "componentType" : 5126,
            "count" : 12,
            "type" : "VEC2"
        },
        {
            "bufferView" : 18,
            "componentType" : 5126,
            "count" : 12,
            "type" : "VEC2"
        },
        {
            "bufferView" : 19,
            "componentType" : 5123,
            "count" : 18,
            "type" : "SCALAR"
        }
    ],
    "bufferViews" : [
        {
            "buffer" : 0,
            "byteLength" : 7008,
            "byteOffset" : 0
        },
        {
            "buffer" : 0,
            "byteLength" : 7008,
            "byteOffset" : 7008
        },
        {
            "buffer" : 0,
            "byteLength" : 4672,
            "byteOffset" : 14016
        },
        {
            "buffer" : 0,
            "byteLength" : 4672,
            "byteOffset" : 18688
        },
        {
            "buffer" : 0,
            "byteLength" : 2388,
            "byteOffset" : 23360
        },
        {
            "buffer" : 0,
            "byteLength" : 6840,
            "byteOffset" : 25748
        },
        {
            "buffer" : 0,
            "byteLength" : 6840,
            "byteOffset" : 32588
        },
        {
            "buffer" : 0,
            "byteLength" : 4560,
            "byteOffset" : 39428
        },
        {
            "buffer" : 0,
            "byteLength" : 4560,
            "byteOffset" : 43988
        },
        {
            "buffer" : 0,
            "byteLength" : 2334,
            "byteOffset" : 48548
        },
        {
            "buffer" : 0,
            "byteLength" : 4320,
            "byteOffset" : 50884
        },
        {
            "buffer" : 0,
            "byteLength" : 4320,
            "byteOffset" : 55204
        },
        {
            "buffer" : 0,
            "byteLength" : 2880,
            "byteOffset" : 59524
        },
        {
            "buffer" : 0,
            "byteLength" : 2880,
            "byteOffset" : 62404
        },
        {
            "buffer" : 0,
            "byteLength" : 1362,
            "byteOffset" : 65284
        },
        {
            "buffer" : 0,
            "byteLength" : 144,
            "byteOffset" : 66648
        },
        {
            "buffer" : 0,
            "byteLength" : 144,
            "byteOffset" : 66792
        },
        {
            "buffer" : 0,
            "byteLength" : 96,
            "byteOffset" : 66936
        },
        {
            "buffer" : 0,
            "byteLength" : 96,
            "byteOffset" : 67032
        },
        {
            "buffer" : 0,
            "byteLength" : 36,
            "byteOffset" : 67128
        }
    ],
    "buffers" : [
        {
            "byteLength" : 67164,
            "uri" : "data:application/octet-stream;base64,"
        }
    ]
}
