{
    "asset" : {
        "generator" : "Khronos glTF Blender I/O v1.1.46",
        "version" : "2.0"
    },
    "scene" : 0,
    "scenes" : [
        {
            "name" : "Scene",
            "nodes" : [
                0
            ]
        }
    ],
    "nodes" : [
        {
            "mesh" : 0,
            "name" : "Present"
        }
    ],
    "materials" : [
        {
            "doubleSided" : true,
            "emissiveFactor" : [
                0,
                0,
                0
            ],
            "name" : "Material",
            "pbrMetallicRoughness" : {
                "baseColorTexture" : {
                    "index" : 0,
                    "texCoord" : 0
                },
                "metallicRoughnessTexture" : {
                    "index" : 1,
                    "texCoord" : 0
                }
            }
        }
    ],
    "meshes" : [
        {
            "name" : "Present",
            "primitives" : [
                {
                    "attributes" : {
                        "POSITION" : 0,
                        "NORMAL" : 1,
                        "TEXCOORD_0" : 2
                    },
                    "indices" : 3,
                    "material" : 0
                }
            ]
        }
    ],
    "textures" : [
        {
            "source" : 0
        },
        {
            "source" : 1
        }
    ],
    "images" : [
        {
            "bufferView" : 4,
            "mimeType" : "image/png",
            "name" : "PresentColor"
        },
        {
            "bufferView" : 5,
            "mimeType" : "image/png",
            "name" : "PresentMetallic.png-PresentRoughness.png"
        }
    ],
    "accessors" : [
        {
            "bufferView" : 0,
            "componentType" : 5126,
            "count" : 1275,
            "max" : [
                0.035189706832170486,
                0.17124074697494507,
                0.03572908416390419
            ],
            "min" : [
                -0.03238525986671448,
                0.0007586588617414236,
                -0.0345352478325367
            ],
            "type" : "VEC3"
        },
        {
            "bufferView" : 1,
            "componentType" : 5126,
            "count" : 1275,
            "type" : "VEC3"
        },
        {
            "bufferView" : 2,
            "componentType" : 5126,
            "count" : 1275,
            "type" : "VEC2"
        },
        {
            "bufferView" : 3,
            "componentType" : 5123,
            "count" : 5202,
            "type" : "SCALAR"
        }
    ],
    "bufferViews" : [
        {
            "buffer" : 0,
            "byteLength" : 15300,
            "byteOffset" : 0
        },
        {
            "buffer" : 0,
            "byteLength" : 15300,
            "byteOffset" : 15300
        },
        {
            "buffer" : 0,
            "byteLength" : 10200,
            "byteOffset" : 30600
        },
        {
            "buffer" : 0,
            "byteLength" : 10404,
            "byteOffset" : 40800
        },
        {
            "buffer" : 0,
            "byteLength" : 713452,
            "byteOffset" : 51204
        },
        {
            "buffer" : 0,
            "byteLength" : 162843,
            "byteOffset" : 764656
        }
    ],
    "buffers" : [
        {
            "byteLength" : 927500,
            "uri" : "data:application/octet-stream;base64,"
        }
    ]
}
